<svg width="32" height="32" viewBox="0 0 32 32" fill="none" xmlns="http://www.w3.org/2000/svg">
<path d="M16 31C18.6234 31 20.75 28.9013 20.75 26.3125C20.75 23.7237 18.6234 21.625 16 21.625C13.3766 21.625 11.25 23.7237 11.25 26.3125C11.25 28.9013 13.3766 31 16 31Z" fill="white"/>
<path d="M31.0625 8.5V6.625C27.4443 6.625 24.5 9.56931 24.5 13.1875V16.5493L23.2878 15.3371L21.9621 16.6628L25.4375 20.1382L28.9128 16.6629L27.5871 15.3372L26.375 16.5493V13.1875C26.375 10.6029 28.4779 8.5 31.0625 8.5Z" fill="white"/>
<path d="M0.9375 6.625V8.5C3.52206 8.5 5.625 10.6029 5.625 13.1875V16.5493L4.41281 15.3371L3.08713 16.6628L6.5625 20.1382L10.0378 16.6629L8.71212 15.3372L7.5 16.5493V13.1875C7.5 9.56931 4.55569 6.625 0.9375 6.625Z" fill="white"/>
<path d="M0 2.875H0.9375C3.82975 2.875 6.44369 4.07556 8.31812 6H23.6819C25.5563 4.07556 28.1702 2.875 31.0625 2.875H32V1H0V2.875Z" fill="white"/>
<path d="M11.2342 12.875H20.7658C20.8208 11.0491 21.3518 9.34462 22.2403 7.875H9.75964C10.6481 9.34462 11.1792 11.0491 11.2342 12.875Z" fill="white"/>
<path d="M11.25 14.75H20.75V19.75H11.25V14.75Z" fill="white"/>
</svg>
