<svg width="32" height="32" viewBox="0 0 32 32" fill="none" xmlns="http://www.w3.org/2000/svg">
<g clip-path="url(#clip0_55_69)">
<path d="M16.8298 14.4585C15.1157 14.8943 13.4309 15.124 11.9922 15.124C11.7092 15.124 11.4363 15.1152 11.1741 15.0974C10.5488 15.0544 10.0332 14.9631 9.60864 14.8381V22.3801H22.3621V12.1499C22.2791 12.2063 22.1941 12.2629 22.1045 12.3198C20.7542 13.1777 18.8809 13.9375 16.8298 14.4585Z" fill="white"/>
<path d="M22.3621 29.3591V24.2773H9.60864V29.3591C9.60864 30.8152 10.7935 32 12.2495 32H19.7212C21.1772 32 22.3621 30.8154 22.3621 29.3591ZM19.0144 27.877H12.9568C12.4329 27.877 12.0083 27.4521 12.0083 26.9282C12.0083 26.4045 12.4329 25.9797 12.9568 25.9797H19.0144C19.5383 25.9797 19.9629 26.4045 19.9629 26.9282C19.9629 27.4521 19.5383 27.877 19.0144 27.877Z" fill="white"/>
<path d="M24.3975 2.56299H21.8518C21.4634 2.56299 21.1072 2.33521 20.9441 1.98267L20.8049 1.6814C20.3254 0.644287 19.3176 0 18.175 0C17.0325 0 16.0247 0.644287 15.5452 1.6814L14.3711 4.22119C14.1221 4.75977 13.6133 4.80176 13.4634 4.80176C13.3132 4.80176 12.8044 4.75977 12.5557 4.22119C12.0833 3.19995 11.051 2.5398 9.92578 2.5398H7.57373C7.0498 2.5398 6.625 2.9646 6.625 3.48853C6.625 4.01245 7.0498 4.43701 7.57373 4.43701H9.92578C10.3142 4.43701 10.6704 4.66504 10.8335 5.01758C11.313 6.05469 12.3208 6.69898 13.4634 6.69898C14.606 6.69898 15.6138 6.05469 16.0933 5.01758L17.2673 2.47754C17.5164 1.93921 18.0251 1.89722 18.175 1.89722C18.3252 1.89722 18.834 1.93921 19.0828 2.47754L19.2219 2.77881C19.6943 3.80029 20.7266 4.46021 21.8518 4.46021H24.3975C24.9214 4.46021 25.3462 4.03564 25.3462 3.51172C25.3462 2.98779 24.9214 2.56299 24.3975 2.56299Z" fill="white"/>
<path d="M11.1218 11.4058C9.97925 12.084 9.63843 12.5923 9.59033 12.7602C9.71265 12.8848 10.2549 13.1687 11.5828 13.2192C12.9404 13.2705 14.6379 13.0581 16.3625 12.6199C18.0872 12.1816 19.6804 11.5583 20.8489 10.8647C21.9915 10.1865 22.3325 9.67797 22.3804 9.51025C22.2581 9.38549 21.7158 9.10156 20.3879 9.05102C19.0305 8.99951 17.3328 9.2124 15.6082 9.65063C13.8835 10.0889 12.2903 10.7122 11.1218 11.4058Z" fill="white"/>
</g>
<defs>
<clipPath id="clip0_55_69">
<rect width="32" height="32" fill="white"/>
</clipPath>
</defs>
</svg>
