<svg width="32" height="32" viewBox="0 0 32 32" fill="none" xmlns="http://www.w3.org/2000/svg">
<g clip-path="url(#clip0_55_97)">
<path d="M25.6 3.2C25.6 1.43269 27.0326 0 28.8 0C30.5673 0 32 1.43269 32 3.2V4.8H25.6V3.2Z" fill="white"/>
<path fill-rule="evenodd" clip-rule="evenodd" d="M13.4059 1.59998C14.0424 1.59998 14.6528 1.85282 15.1029 2.30292L21.6971 8.89703C22.1472 9.34711 22.4 9.95758 22.4 10.5941V28C22.4 29.3254 21.3254 30.4 20 30.4H3.99998C2.67449 30.4 1.59998 29.3254 1.59998 28V3.99998C1.59998 2.67449 2.67449 1.59998 3.99998 1.59998H13.4059ZM6.39998 7.99998H12.8V11.2H6.39998V7.99998ZM17.6 14.4V17.6H6.39998V14.4H17.6ZM6.39998 24V20.8H14.4V24H6.39998Z" fill="white"/>
<path d="M25.5998 8L32 8.00005L32.0001 25.6L28.8 32L25.6 25.6L25.5998 8Z" fill="white"/>
</g>
<defs>
<clipPath id="clip0_55_97">
<rect width="32" height="32" fill="white"/>
</clipPath>
</defs>
</svg>
