<svg width="32" height="32" viewBox="0 0 32 32" fill="none" xmlns="http://www.w3.org/2000/svg">
<path fill-rule="evenodd" clip-rule="evenodd" d="M15 2.66663C15 2.11463 15.448 1.66663 16 1.66663C16.552 1.66663 17 2.11463 17 2.66663V29.3333C17 29.8853 16.552 30.3333 16 30.3333C15.448 30.3333 15 29.8853 15 29.3333V2.66663Z" fill="white"/>
<path fill-rule="evenodd" clip-rule="evenodd" d="M4.056 9.98931C3.58267 9.70531 3.42933 9.09064 3.71333 8.61731C3.99867 8.14531 4.61333 7.99198 5.08667 8.27598L27.944 22.0106C28.4173 22.2946 28.5707 22.9093 28.2867 23.3826C28.0013 23.8546 27.3867 24.008 26.9133 23.724L4.056 9.98931Z" fill="white"/>
<path fill-rule="evenodd" clip-rule="evenodd" d="M4.69733 23.1426C4.20933 23.4013 3.60399 23.216 3.34399 22.7293C3.08533 22.2413 3.27066 21.636 3.75733 21.3773L27.3027 8.8573C27.7907 8.59863 28.396 8.78397 28.656 9.27063C28.9147 9.75863 28.7293 10.364 28.2427 10.6226L4.69733 23.1426Z" fill="white"/>
<path fill-rule="evenodd" clip-rule="evenodd" d="M11.36 5.43463C10.936 5.08129 10.8787 4.45063 11.232 4.02663C11.5853 3.60263 12.216 3.54529 12.64 3.89863L16 6.69863L19.36 3.89863C19.784 3.54529 20.4147 3.60263 20.768 4.02663C21.1213 4.45063 21.064 5.08129 20.64 5.43463L16.64 8.76796C16.2693 9.07729 15.7307 9.07729 15.36 8.76796L11.36 5.43463Z" fill="white"/>
<path fill-rule="evenodd" clip-rule="evenodd" d="M4.55465 14.5359C4.03332 14.7173 3.46265 14.4413 3.28132 13.9199C3.09998 13.3986 3.37465 12.8279 3.89598 12.6466L8.02665 11.2093L7.35732 6.88661C7.27332 6.34128 7.64665 5.83061 8.19198 5.74661C8.73732 5.66128 9.24932 6.03594 9.33332 6.58128L10.1306 11.7266C10.2053 12.2039 9.92798 12.6653 9.47198 12.8239L4.55465 14.5359Z" fill="white"/>
<path fill-rule="evenodd" clip-rule="evenodd" d="M8.84932 25.0573C8.73732 25.5973 8.20665 25.9439 7.66665 25.8306C7.12665 25.7186 6.77999 25.1879 6.89199 24.6479L7.78665 20.3666L3.73732 18.7146C3.22665 18.5066 2.98132 17.9226 3.18932 17.4106C3.39732 16.8999 3.98265 16.6546 4.49332 16.8626L9.31465 18.8293C9.76132 19.0119 10.0147 19.4879 9.91465 19.9599L8.84932 25.0573Z" fill="white"/>
<path fill-rule="evenodd" clip-rule="evenodd" d="M12.64 28.1013C12.216 28.4547 11.5853 28.3973 11.232 27.9733C10.8787 27.5493 10.936 26.9187 11.36 26.5653L15.36 23.232C15.7307 22.9227 16.2693 22.9227 16.64 23.232L20.64 26.5653C21.064 26.9187 21.1213 27.5493 20.768 27.9733C20.4147 28.3973 19.784 28.4547 19.36 28.1013L16 25.3013L12.64 28.1013Z" fill="white"/>
<path fill-rule="evenodd" clip-rule="evenodd" d="M24.6427 25.1132C24.7267 25.6586 24.3533 26.1692 23.808 26.2532C23.2627 26.3386 22.7507 25.9639 22.6667 25.4186L21.8693 20.2732C21.7947 19.7959 22.072 19.3346 22.528 19.1759L27.4453 17.4639C27.9667 17.2826 28.5373 17.5586 28.7187 18.0799C28.9 18.6012 28.6253 19.1719 28.104 19.3532L23.9733 20.7906L24.6427 25.1132Z" fill="white"/>
<path fill-rule="evenodd" clip-rule="evenodd" d="M28.2627 13.2853C28.7733 13.4933 29.0187 14.0773 28.8107 14.5893C28.6027 15.1 28.0173 15.3453 27.5067 15.1373L22.6853 13.1706C22.2387 12.988 21.9853 12.512 22.0853 12.04L23.1507 6.94263C23.2627 6.40263 23.7933 6.05596 24.3333 6.1693C24.8733 6.2813 25.22 6.81196 25.108 7.35196L24.2133 11.6333L28.2627 13.2853Z" fill="white"/>
</svg>
