<svg width="32" height="32" viewBox="0 0 32 32" fill="none" xmlns="http://www.w3.org/2000/svg">
<path d="M15.9491 1.02869C12.5773 1.02869 9.83385 3.77212 9.83385 7.14395C9.83385 10.3538 12.3218 12.9894 15.4696 13.2357V16.8226C14.6586 15.7057 13.3314 14.1407 11.4501 12.8138C10.3395 12.0305 9.0319 11.5879 7.89538 11.4408C7.32711 11.3673 6.80206 11.3681 6.34557 11.4521C5.88908 11.5355 5.47466 11.692 5.20885 12.0654C4.94306 12.4388 4.92832 12.8845 4.99792 13.3418C5.06752 13.7991 5.23737 14.2911 5.48913 14.7998C5.99264 15.8171 6.82444 16.8927 7.90319 17.6533C10.6584 19.5958 14.1114 19.307 15.4696 19.0957V22.001H7.9696C7.42424 22.001 6.9696 22.4556 6.9696 23.001V24H24.9696V23.0004C24.9696 22.455 24.5149 22.0003 23.9696 22.0003H16.4696V20.5228C17.2573 20.6364 21.3759 21.0919 24.3944 18.6859C25.4266 17.8632 26.1918 16.7448 26.6346 15.6996C26.856 15.177 26.9983 14.6728 27.0409 14.2123C27.0835 13.7517 27.0439 13.3077 26.7567 12.9506C26.4694 12.5934 26.0435 12.4601 25.5829 12.4037C25.1223 12.3474 24.5951 12.378 24.0321 12.4847C22.9062 12.6984 21.6298 13.2175 20.5673 14.0648C18.4807 15.7285 17.1464 17.6723 16.4696 18.8158V13.2338C19.5982 12.968 22.0653 10.34 22.0653 7.14395C22.0653 3.77212 19.3209 1.02869 15.9491 1.02869ZM16.4481 10.6693C16.5042 11.3879 15.395 11.3879 15.451 10.6693V10.2855H14.4286C13.71 10.3416 13.71 9.23237 14.4286 9.28844H15.451L15.4418 7.64292C14.361 7.64297 13.4208 6.864 13.4208 5.82265C13.4208 4.78131 14.361 3.99938 15.4418 3.99938L15.451 3.6195C15.4456 3.34297 15.6657 3.11458 15.9423 3.10974C16.2245 3.10597 16.4536 3.33726 16.4481 3.6195V3.99938H17.4696C18.1369 3.99938 18.1369 5.00037 17.4696 5.00037H16.4481L16.4535 6.64198C17.5333 6.64192 18.4774 7.42384 18.4774 8.46519C18.4774 9.50653 17.5372 10.2855 16.4569 10.2855L16.4481 10.6693ZM15.4418 5.00037C14.8274 5.00037 14.4217 5.39308 14.4217 5.82265C14.4217 6.25221 14.8274 6.64202 15.4418 6.64198V5.00037ZM17.4774 8.46519C17.4774 8.03563 17.069 7.64288 16.4535 7.64292L16.457 9.28844C17.0709 9.28844 17.4774 8.89475 17.4774 8.46519ZM7.47448 24.9994C7.47697 25.032 7.47198 25.064 7.47849 25.0971L8.47947 30.098C8.52086 30.305 8.60762 30.5115 8.77048 30.6889C8.93334 30.8663 9.19574 30.9985 9.47165 30.9985H22.4716C22.7476 30.9985 23.01 30.8664 23.1728 30.6889C23.3357 30.5114 23.4195 30.305 23.4609 30.098L24.4609 25.0971C24.4675 25.064 24.4634 25.0322 24.4658 24.9994H7.47448Z" fill="white"/>
</svg>
