<svg width="70" height="70" viewBox="0 0 70 70" fill="none" xmlns="http://www.w3.org/2000/svg">
<rect width="70" height="70" rx="35" fill="#2F8AF4"/>
<path d="M31.8298 46.6018V38.6851H38.1632V46.6018C38.1632 47.4726 38.8757 48.1851 39.7465 48.1851H44.4965C45.3673 48.1851 46.0798 47.4726 46.0798 46.6018V35.5184H48.7715C49.4998 35.5184 49.8482 34.6159 49.294 34.1409L36.0573 22.2184C35.4557 21.6801 34.5373 21.6801 33.9357 22.2184L20.699 34.1409C20.1607 34.6159 20.4932 35.5184 21.2215 35.5184H23.9132V46.6018C23.9132 47.4726 24.6257 48.1851 25.4965 48.1851H30.2465C31.1173 48.1851 31.8298 47.4726 31.8298 46.6018Z" fill="white"/>
</svg>
