<svg width="28" height="28" viewBox="0 0 28 28" fill="none" xmlns="http://www.w3.org/2000/svg">
<path d="M13.9867 0.666748C6.62669 0.666748 0.666687 6.64008 0.666687 14.0001C0.666687 21.3601 6.62669 27.3334 13.9867 27.3334C21.36 27.3334 27.3334 21.3601 27.3334 14.0001C27.3334 6.64008 21.36 0.666748 13.9867 0.666748ZM23.2267 8.66675H19.2934C18.8667 7.00008 18.2534 5.40008 17.4534 3.92008C19.9067 4.76008 21.9467 6.46675 23.2267 8.66675ZM14 3.38675C15.1067 4.98675 15.9734 6.76008 16.5467 8.66675H11.4534C12.0267 6.76008 12.8934 4.98675 14 3.38675ZM3.68002 16.6667C3.46669 15.8134 3.33335 14.9201 3.33335 14.0001C3.33335 13.0801 3.46669 12.1867 3.68002 11.3334H8.18669C8.08002 12.2134 8.00002 13.0934 8.00002 14.0001C8.00002 14.9067 8.08002 15.7867 8.18669 16.6667H3.68002ZM4.77335 19.3334H8.70669C9.13335 21.0001 9.74669 22.6001 10.5467 24.0801C8.09335 23.2401 6.05335 21.5467 4.77335 19.3334ZM8.70669 8.66675H4.77335C6.05335 6.45341 8.09335 4.76008 10.5467 3.92008C9.74669 5.40008 9.13335 7.00008 8.70669 8.66675ZM14 24.6134C12.8934 23.0134 12.0267 21.2401 11.4534 19.3334H16.5467C15.9734 21.2401 15.1067 23.0134 14 24.6134ZM17.12 16.6667H10.88C10.76 15.7867 10.6667 14.9067 10.6667 14.0001C10.6667 13.0934 10.76 12.2001 10.88 11.3334H17.12C17.24 12.2001 17.3334 13.0934 17.3334 14.0001C17.3334 14.9067 17.24 15.7867 17.12 16.6667ZM17.4534 24.0801C18.2534 22.6001 18.8667 21.0001 19.2934 19.3334H23.2267C21.9467 21.5334 19.9067 23.2401 17.4534 24.0801ZM19.8134 16.6667C19.92 15.7867 20 14.9067 20 14.0001C20 13.0934 19.92 12.2134 19.8134 11.3334H24.32C24.5334 12.1867 24.6667 13.0801 24.6667 14.0001C24.6667 14.9201 24.5334 15.8134 24.32 16.6667H19.8134Z" fill="#D3D3D3"/>
</svg>
