<svg width="32" height="32" viewBox="0 0 32 32" fill="none" xmlns="http://www.w3.org/2000/svg">
<path d="M22 24.6666H10C9.63182 24.6666 9.33334 24.9651 9.33334 25.3333V29.3333C9.33334 29.7015 9.63182 30 10 30H22C22.3682 30 22.6667 29.7015 22.6667 29.3333V25.3333C22.6667 24.9651 22.3682 24.6666 22 24.6666Z" fill="white"/>
<path d="M7.33333 30.1667C7.11232 30.1667 6.90036 30.0789 6.74408 29.9226C6.5878 29.7663 6.5 29.5543 6.5 29.3333C6.5 29.1123 6.5878 28.9004 6.74408 28.7441C6.90036 28.5878 7.11232 28.5 7.33333 28.5H24.6667C24.8877 28.5 25.0996 28.5878 25.2559 28.7441C25.4122 28.9004 25.5 29.1123 25.5 29.3333C25.5 29.5543 25.4122 29.7663 25.2559 29.9226C25.0996 30.0789 24.8877 30.1667 24.6667 30.1667H7.33333Z" fill="white"/>
<path d="M22.6667 14.6666C23.1971 14.6666 23.7058 14.4559 24.0809 14.0808C24.456 13.7058 24.6667 13.1971 24.6667 12.6666C24.6667 12.1362 24.456 11.6275 24.0809 11.2524C23.7058 10.8773 23.1971 10.6666 22.6667 10.6666H21.3333V14.6666H22.6667Z" fill="white"/>
<path d="M20.696 21.3334C20.2717 21.3324 19.8582 21.4672 19.516 21.718L19.096 22.0254C18.5267 22.4427 17.8392 22.6674 17.1333 22.6667H2C2.00106 23.5504 2.35259 24.3977 2.97748 25.0226C3.60237 25.6475 4.4496 25.999 5.33333 26H26.6667C27.5504 25.999 28.3976 25.6475 29.0225 25.0226C29.6474 24.3977 29.9989 23.5504 30 22.6667V21.3334H20.696Z" fill="white"/>
<path d="M9.33334 14.6666H10.6667V10.6666H9.33334C8.80291 10.6666 8.2942 10.8773 7.91913 11.2524C7.54406 11.6275 7.33334 12.1362 7.33334 12.6666C7.33334 13.1971 7.54406 13.7058 7.91913 14.0808C8.2942 14.4559 8.80291 14.6666 9.33334 14.6666Z" fill="white"/>
<path d="M17.1333 21.3333C17.5574 21.3344 17.9707 21.1996 18.3127 20.9487L18.7333 20.6413C19.3026 20.2241 19.9902 19.9995 20.696 20H30V5.33333C29.9989 4.4496 29.6474 3.60237 29.0225 2.97748C28.3976 2.35259 27.5504 2.00106 26.6667 2H5.33333C4.4496 2.00106 3.60237 2.35259 2.97748 2.97748C2.35259 3.60237 2.00106 4.4496 2 5.33333V21.3333H17.1333ZM16.6667 12C16.5348 12 16.4059 11.9609 16.2963 11.8876C16.1867 11.8144 16.1012 11.7103 16.0507 11.5885C16.0003 11.4666 15.9871 11.3326 16.0128 11.2033C16.0385 11.074 16.102 10.9552 16.1953 10.8619C16.2885 10.7687 16.4073 10.7052 16.5366 10.6795C16.6659 10.6538 16.8 10.667 16.9218 10.7174C17.0436 10.7679 17.1477 10.8533 17.221 10.963C17.2942 11.0726 17.3333 11.2015 17.3333 11.3333C17.3333 11.5101 17.2631 11.6797 17.1381 11.8047C17.013 11.9298 16.8435 12 16.6667 12ZM18.6667 12C18.5348 12 18.4059 11.9609 18.2963 11.8876C18.1867 11.8144 18.1012 11.7103 18.0507 11.5885C18.0003 11.4666 17.9871 11.3326 18.0128 11.2033C18.0385 11.074 18.102 10.9552 18.1953 10.8619C18.2885 10.7687 18.4073 10.7052 18.5366 10.6795C18.6659 10.6538 18.8 10.667 18.9218 10.7174C19.0436 10.7679 19.1477 10.8533 19.221 10.963C19.2942 11.0726 19.3333 11.2015 19.3333 11.3333C19.3333 11.5101 19.2631 11.6797 19.1381 11.8047C19.013 11.9298 18.8435 12 18.6667 12ZM9.33333 9.33333H10.6667C10.6667 7.91885 11.2286 6.56229 12.2288 5.5621C13.229 4.5619 14.5855 4 16 4C17.4145 4 18.771 4.5619 19.7712 5.5621C20.7714 6.56229 21.3333 7.91885 21.3333 9.33333H22.6667C23.5507 9.33333 24.3986 9.68452 25.0237 10.3096C25.6488 10.9348 26 11.7826 26 12.6667C26 13.5507 25.6488 14.3986 25.0237 15.0237C24.3986 15.6488 23.5507 16 22.6667 16H20.6667C20.4899 16 20.3203 15.9298 20.1953 15.8047C20.0702 15.6797 20 15.5101 20 15.3333V9.33333C20 8.27247 19.5786 7.25505 18.8284 6.50491C18.0783 5.75476 17.0609 5.33333 16 5.33333C14.9391 5.33333 13.9217 5.75476 13.1716 6.50491C12.4214 7.25505 12 8.27247 12 9.33333V16C12 16.3536 12.1405 16.6928 12.3905 16.9428C12.6406 17.1929 12.9797 17.3333 13.3333 17.3333H13.518C13.6648 17.0791 13.8913 16.8805 14.1625 16.7682C14.4336 16.6558 14.7343 16.6361 15.0178 16.7121C15.3013 16.7881 15.5518 16.9555 15.7305 17.1883C15.9092 17.4212 16.006 17.7065 16.006 18C16.006 18.2935 15.9092 18.5788 15.7305 18.8117C15.5518 19.0445 15.3013 19.2119 15.0178 19.2879C14.7343 19.3639 14.4336 19.3442 14.1625 19.2318C13.8913 19.1195 13.6648 18.9209 13.518 18.6667H13.3333C12.6261 18.6667 11.9478 18.3857 11.4477 17.8856C10.9476 17.3855 10.6667 16.7072 10.6667 16H9.33333C8.44928 16 7.60143 15.6488 6.97631 15.0237C6.35119 14.3986 6 13.5507 6 12.6667C6 11.7826 6.35119 10.9348 6.97631 10.3096C7.60143 9.68452 8.44928 9.33333 9.33333 9.33333ZM15.3333 11.3333C15.3333 11.4652 15.2942 11.5941 15.221 11.7037C15.1477 11.8133 15.0436 11.8988 14.9218 11.9493C14.8 11.9997 14.6659 12.0129 14.5366 11.9872C14.4073 11.9615 14.2885 11.898 14.1953 11.8047C14.102 11.7115 14.0385 11.5927 14.0128 11.4634C13.9871 11.3341 14.0003 11.2 14.0507 11.0782C14.1012 10.9564 14.1867 10.8523 14.2963 10.779C14.4059 10.7058 14.5348 10.6667 14.6667 10.6667C14.8435 10.6667 15.013 10.7369 15.1381 10.8619C15.2631 10.987 15.3333 11.1565 15.3333 11.3333Z" fill="white"/>
</svg>
