<svg width="32" height="30" viewBox="0 0 32 30" fill="none" xmlns="http://www.w3.org/2000/svg">
<path d="M16.9375 20.625C17.4552 20.625 17.875 20.2052 17.875 19.6875V15.9375C17.875 15.4198 17.4554 15 16.9375 15H15.0625C14.5448 15 14.125 15.4196 14.125 15.9375V19.6875C14.125 20.2052 14.5447 20.625 15.0625 20.625H16.9375Z" fill="white"/>
<path d="M29.1875 4.6875H22.5625C22.5625 4.49869 22.5625 3.56119 22.5625 3.75C22.5625 2.19913 21.3009 0.9375 19.75 0.9375C19.5465 0.9375 11.9716 0.9375 12.25 0.9375C10.6991 0.9375 9.4375 2.19906 9.4375 3.75C9.4375 3.93881 9.4375 4.87631 9.4375 4.6875H2.8125C1.26163 4.6875 0 5.94906 0 7.5C0 9.33606 0.225 10.944 0.67175 12.3143C1.1185 13.6846 1.78706 14.8174 2.67425 15.7031C4.16719 17.1941 6.06881 17.8125 8.20406 17.8125H12.25C12.25 17.6237 12.25 15.7487 12.25 15.9375C12.25 14.3866 13.5116 13.125 15.0625 13.125C15.2513 13.125 17.1263 13.125 16.9375 13.125C18.4884 13.125 19.75 14.3866 19.75 15.9375C19.75 16.1263 19.75 18.0013 19.75 17.8125H21.8331C23.6993 17.7349 26.752 18.3024 29.3248 15.7416C30.2124 14.8581 30.8812 13.7233 31.3281 12.3466C31.7751 10.9698 32 9.35119 32 7.5C32 5.94913 30.7384 4.6875 29.1875 4.6875ZM11.3125 3.75C11.3125 3.23275 11.7327 2.8125 12.25 2.8125H19.75C20.2673 2.8125 20.6875 3.23269 20.6875 3.75C20.6875 3.93881 20.6875 4.87631 20.6875 4.6875H11.3125C11.3125 4.49869 11.3125 3.56119 11.3125 3.75Z" fill="white"/>
<path d="M21.8587 19.6875H19.75C19.75 21.2383 18.4884 22.5 16.9375 22.5C16.7487 22.5 14.8737 22.5 15.0625 22.5C13.5116 22.5 12.25 21.2384 12.25 19.6875C12.0358 19.6875 7.98075 19.6875 8.21225 19.6875C5.53825 19.6875 3.18956 18.867 1.34944 17.0297C0.829625 16.5108 0.38575 15.9265 0 15.3015V28.125C0 28.6431 0.419312 29.0625 0.9375 29.0625H31.0625C31.5807 29.0625 32 28.6431 32 28.125V15.3401C31.6091 15.9745 31.1634 16.5575 30.6478 17.0709C27.6896 20.0136 24.5392 19.5608 21.8587 19.6875Z" fill="white"/>
</svg>
