<svg width="40" height="40" viewBox="0 0 40 40" fill="none" xmlns="http://www.w3.org/2000/svg">
<rect width="40" height="40" rx="20" fill="white"/>
<path d="M20.0012 29.75C21.1012 29.75 22.0012 28.85 22.0012 27.75H18.0012C18.0012 28.85 18.8912 29.75 20.0012 29.75ZM26.0012 23.75V18.75C26.0012 15.68 24.3612 13.11 21.5012 12.43V11.75C21.5012 10.92 20.8312 10.25 20.0012 10.25C19.1712 10.25 18.5012 10.92 18.5012 11.75V12.43C15.6312 13.11 14.0012 15.67 14.0012 18.75V23.75L12.7112 25.04C12.0812 25.67 12.5212 26.75 13.4112 26.75H26.5812C27.4712 26.75 27.9212 25.67 27.2912 25.04L26.0012 23.75Z" fill="#2F8AF4"/>
</svg>
