<svg width="32" height="32" viewBox="0 0 32 32" fill="none" xmlns="http://www.w3.org/2000/svg">
<path d="M12.6667 21.3333V10.6667C12.6667 9.2 13.8533 8 15.3333 8H27.3333V6.66667C27.3333 5.2 26.1333 4 24.6667 4H5.99999C4.51999 4 3.33333 5.2 3.33333 6.66667V25.3333C3.33333 26.8 4.51999 28 5.99999 28H24.6667C26.1333 28 27.3333 26.8 27.3333 25.3333V24H15.3333C13.8533 24 12.6667 22.8 12.6667 21.3333ZM16.6667 10.6667C15.9333 10.6667 15.3333 11.2667 15.3333 12V20C15.3333 20.7333 15.9333 21.3333 16.6667 21.3333H28.6667V10.6667H16.6667ZM20.6667 18C19.56 18 18.6667 17.1067 18.6667 16C18.6667 14.8933 19.56 14 20.6667 14C21.7733 14 22.6667 14.8933 22.6667 16C22.6667 17.1067 21.7733 18 20.6667 18Z" fill="white"/>
</svg>
