<svg width="32" height="32" viewBox="0 0 32 32" fill="none" xmlns="http://www.w3.org/2000/svg">
<path d="M13.7704 14.7593C14.135 14.9119 14.5132 15.0298 14.8999 15.1114V29.0756C14.6627 29.0144 14.4319 28.9309 14.2105 28.8262L5.40953 24.9098C4.63245 24.5639 3.97227 24.0002 3.50889 23.2869C3.04551 22.5736 2.79879 21.7413 2.79858 20.8907V11.1216C2.79975 10.7298 2.85403 10.34 2.95993 9.96284L13.7704 14.7593ZM20.1364 11.4883L8.18183 5.8704L5.40953 7.10253C4.90956 7.3223 4.45642 7.63601 4.07472 8.02663L14.6505 12.7351C15.0754 12.9237 15.5351 13.0211 16 13.0211C16.4649 13.0211 16.9246 12.9237 17.3495 12.7351L20.1364 11.4883ZM27.9253 8.02663C27.5436 7.63601 27.0904 7.3223 26.5905 7.10253L17.7895 3.18611C17.2271 2.93229 16.6171 2.80103 16 2.80103C15.3829 2.80103 14.7729 2.93229 14.2105 3.18611L10.8514 4.68227L22.8061 10.3002L27.9253 8.02663ZM29.0401 9.96284L23.8915 12.2511V15.8448C23.8915 16.1366 23.7756 16.4164 23.5693 16.6227C23.363 16.829 23.0832 16.9449 22.7914 16.9449C22.4996 16.9449 22.2198 16.829 22.0135 16.6227C21.8072 16.4164 21.6913 16.1366 21.6913 15.8448V13.2192L18.2296 14.7593C17.8626 14.9053 17.485 15.023 17.1001 15.1114V29.0756C17.3373 29.0144 17.5681 28.9309 17.7895 28.8262L26.5905 24.9098C27.3675 24.5639 28.0277 24.0002 28.4911 23.2869C28.9545 22.5736 29.2012 21.7413 29.2014 20.8907V11.1216C29.2002 10.7298 29.146 10.34 29.0401 9.96284Z" fill="white"/>
</svg>
