<svg width="24" height="24" viewBox="0 0 24 24" fill="none" xmlns="http://www.w3.org/2000/svg">
<path d="M17.0067 15.0068H15.9533L15.58 14.6468C16.8867 13.1268 17.6733 11.1534 17.6733 9.00675C17.6733 4.22009 13.7933 0.340088 9.00666 0.340088C4.22 0.340088 0.339996 4.22009 0.339996 9.00675C0.339996 13.7934 4.22 17.6734 9.00666 17.6734C11.1533 17.6734 13.1267 16.8868 14.6467 15.5801L15.0067 15.9534V17.0068L21.6733 23.6601L23.66 21.6734L17.0067 15.0068ZM9.00666 15.0068C5.68666 15.0068 3.00666 12.3268 3.00666 9.00675C3.00666 5.68675 5.68666 3.00675 9.00666 3.00675C12.3267 3.00675 15.0067 5.68675 15.0067 9.00675C15.0067 12.3268 12.3267 15.0068 9.00666 15.0068Z" fill="#D3D3D3"/>
</svg>
