<svg width="32" height="32" viewBox="0 0 32 32" fill="none" xmlns="http://www.w3.org/2000/svg">
<g clip-path="url(#clip0_55_119)">
<path d="M28.5521 25.1042C27.9414 25.1042 27.3679 25.2644 26.8699 25.544L22.9714 21.6454C22.5768 22.1321 22.1323 22.5766 21.6456 22.9712L25.5441 26.8698C25.2644 27.3678 25.1042 27.9414 25.1042 28.5521C25.1042 30.4533 26.6509 32 28.5521 32C30.4533 32 32 30.4533 32 28.5521C32 26.6509 30.4533 25.1042 28.5521 25.1042Z" fill="white"/>
<path d="M3.44794 6.89581C4.0585 6.89581 4.63212 6.73562 5.13006 6.456L9.02856 10.3546C9.42319 9.86794 9.86769 9.42344 10.3544 9.02881L6.45594 5.13025C6.73556 4.63225 6.89581 4.05863 6.89581 3.44794C6.89581 1.54675 5.34912 0 3.44794 0C1.54675 0 0 1.54675 0 3.44794C0 5.34912 1.54675 6.89581 3.44794 6.89581Z" fill="white"/>
<path d="M22.9714 10.3546L25.1351 8.19075C25.8309 8.64131 26.6591 8.90419 27.5479 8.90419C30.0028 8.90419 32 6.907 32 4.45213C32 1.99725 30.0028 0 27.5479 0C25.0931 0 23.0959 1.99719 23.0959 4.45206C23.0959 5.34094 23.3588 6.16912 23.8094 6.86487L21.6456 9.02875C22.1323 9.42338 22.5768 9.86788 22.9714 10.3546Z" fill="white"/>
<path d="M16 17.0709C17.146 17.0709 18.075 16.1419 18.075 14.9959C18.075 13.8499 17.146 12.9209 16 12.9209C14.854 12.9209 13.925 13.8499 13.925 14.9959C13.925 16.1419 14.854 17.0709 16 17.0709Z" fill="white"/>
<path d="M16.001 18.9459C13.455 18.9459 12.3477 20.9554 12.0741 21.9079C13.1992 22.658 14.5493 23.0959 16 23.0959C17.4506 23.0959 18.8008 22.6579 19.9258 21.9079C19.6545 20.963 18.5558 18.9459 16.001 18.9459Z" fill="white"/>
<path d="M16 8.90417C12.0873 8.90417 8.90417 12.0874 8.90417 16C8.90417 17.7389 9.5333 19.3334 10.5754 20.5687C10.8324 20.0027 11.5485 18.6504 13.1918 17.7704C12.4864 17.0566 12.05 16.0764 12.05 14.9959C12.05 12.8178 13.822 11.0459 16 11.0459C18.178 11.0459 19.95 12.8179 19.95 14.9959C19.95 16.0764 19.5135 17.0566 18.8081 17.7705C20.4519 18.6506 21.1679 20.0034 21.4246 20.5687C22.4667 19.3334 23.0958 17.7389 23.0958 16C23.0958 12.0873 19.9127 8.90417 16 8.90417Z" fill="white"/>
<path d="M9.02862 21.6454L6.86481 23.8093C6.16906 23.3587 5.34094 23.0958 4.45206 23.0958C1.99719 23.0958 0 25.093 0 27.5479C0 30.0029 1.99719 32 4.45206 32C6.90694 32 8.90413 30.0028 8.90413 27.5479C8.90413 26.659 8.64125 25.8308 8.19063 25.1351L10.3544 22.9713C9.86769 22.5766 9.42325 22.1321 9.02862 21.6454Z" fill="white"/>
</g>
<defs>
<clipPath id="clip0_55_119">
<rect width="32" height="32" fill="white"/>
</clipPath>
</defs>
</svg>
