<svg width="32" height="32" viewBox="0 0 32 32" fill="none" xmlns="http://www.w3.org/2000/svg">
<path d="M4.78788 10.5646C5.15401 10.9307 5.74757 10.9307 6.11369 10.5646L8.76538 7.91291C9.13151 7.54678 9.13151 6.95322 8.76538 6.58709C8.39926 6.22097 7.80569 6.22097 7.43957 6.58709L5.45082 8.57584L4.78794 7.91297C4.42182 7.54684 3.82826 7.54684 3.46213 7.91291C3.09601 8.27897 3.09601 8.87259 3.46207 9.23872L4.78788 10.5646Z" fill="white"/>
<path d="M23.3104 10.5646C23.6766 10.9307 24.2701 10.9307 24.6362 10.5646L27.2879 7.91291C27.6541 7.54678 27.6541 6.95322 27.2879 6.58709C26.9218 6.22097 26.3282 6.22097 25.9621 6.58709L23.9734 8.57584L23.3104 7.91291C22.9443 7.54678 22.3507 7.54678 21.9846 7.91291C21.6185 8.27897 21.6185 8.87259 21.9846 9.23872L23.3104 10.5646Z" fill="white"/>
<path d="M14.0492 10.5646C14.4153 10.9307 15.0089 10.9307 15.375 10.5646L18.0266 7.91291C18.3927 7.54678 18.3927 6.95322 18.0266 6.58709C17.6605 6.22097 17.0669 6.22097 16.7008 6.58709L14.7121 8.57578L14.0492 7.91284C13.6831 7.54672 13.0895 7.54672 12.7234 7.91284C12.3573 8.27891 12.3573 8.87253 12.7234 9.23866L14.0492 10.5646Z" fill="white"/>
<path d="M17.496 13.8125H9.08206L12.4824 19.2531C12.6724 19.5571 12.6724 19.9429 12.4824 20.2469L9.08206 25.6875H17.496L21.2069 19.75L17.496 13.8125Z" fill="white"/>
<path d="M6.871 13.8125H0.9375C0.41975 13.8125 0 14.2322 0 14.75V24.75C0 25.2677 0.41975 25.6875 0.9375 25.6875H6.871L10.5819 19.75L6.871 13.8125Z" fill="white"/>
<path d="M31.8575 19.2531L28.7325 14.2531C28.5612 13.979 28.2607 13.8125 27.9375 13.8125H19.7071L23.1074 19.2531C23.2974 19.5571 23.2974 19.9429 23.1074 20.2469L19.7071 25.6875H27.9375C28.2607 25.6875 28.5612 25.521 28.7325 25.2469L31.8575 20.2469C32.0475 19.9429 32.0475 19.5571 31.8575 19.2531Z" fill="white"/>
</svg>
