<svg width="28" height="28" viewBox="0 0 28 28" fill="none" xmlns="http://www.w3.org/2000/svg">
<path d="M14.0013 0.666748C21.3653 0.666748 27.3347 6.63608 27.3347 14.0001C27.3347 21.3641 21.3653 27.3334 14.0013 27.3334C11.645 27.3372 9.33021 26.7136 7.29467 25.5267L0.673333 27.3334L2.476 20.7094C1.28812 18.6732 0.664064 16.3574 0.668 14.0001C0.668 6.63608 6.63733 0.666748 14.0013 0.666748ZM9.45733 7.73342L9.19067 7.74408C9.01803 7.7546 8.84931 7.79995 8.69467 7.87741C8.55003 7.95932 8.418 8.06171 8.30267 8.18142C8.14267 8.33208 8.052 8.46275 7.95467 8.58941C7.4615 9.23062 7.19596 10.0178 7.2 10.8267C7.20267 11.4801 7.37333 12.1161 7.64 12.7107C8.18533 13.9134 9.08267 15.1867 10.2667 16.3667C10.552 16.6507 10.832 16.9361 11.1333 17.2014C12.6045 18.4967 14.3577 19.4308 16.2533 19.9294L17.0107 20.0454C17.2573 20.0587 17.504 20.0401 17.752 20.0281C18.1403 20.008 18.5195 19.9029 18.8627 19.7201C19.0373 19.6301 19.2077 19.5323 19.3733 19.4267C19.3733 19.4267 19.4307 19.3894 19.54 19.3067C19.72 19.1734 19.8307 19.0787 19.98 18.9227C20.0907 18.8081 20.1867 18.6734 20.26 18.5201C20.364 18.3027 20.468 17.8881 20.5107 17.5427C20.5427 17.2787 20.5333 17.1347 20.5293 17.0454C20.524 16.9027 20.4053 16.7547 20.276 16.6921L19.5 16.3441C19.5 16.3441 18.34 15.8387 17.6307 15.5161C17.5564 15.4837 17.4769 15.4651 17.396 15.4614C17.3048 15.452 17.2126 15.4623 17.1257 15.4915C17.0387 15.5207 16.9591 15.5682 16.892 15.6307C16.8853 15.6281 16.796 15.7041 15.832 16.8721C15.7767 16.9464 15.7005 17.0026 15.6131 17.0335C15.5257 17.0644 15.4311 17.0685 15.3413 17.0454C15.2545 17.0221 15.1694 16.9927 15.0867 16.9574C14.9213 16.8881 14.864 16.8614 14.7507 16.8134C13.9854 16.4795 13.2769 16.0283 12.6507 15.4761C12.4827 15.3294 12.3267 15.1694 12.1667 15.0147C11.6421 14.5124 11.185 13.9441 10.8067 13.3241L10.728 13.1974C10.6715 13.1123 10.6258 13.0205 10.592 12.9241C10.5413 12.7281 10.6733 12.5707 10.6733 12.5707C10.6733 12.5707 10.9973 12.2161 11.148 12.0241C11.2947 11.8374 11.4187 11.6561 11.4987 11.5267C11.656 11.2734 11.7053 11.0134 11.6227 10.8121C11.2493 9.90008 10.8627 8.99208 10.4653 8.09075C10.3867 7.91208 10.1533 7.78408 9.94133 7.75875C9.86933 7.75075 9.79733 7.74275 9.72533 7.73741C9.54628 7.72852 9.36685 7.7303 9.188 7.74275L9.456 7.73208L9.45733 7.73342Z" fill="#242526"/>
</svg>
